<svg  width="32" height="32" xmlns="http://www.w3.org/2000/svg">
<path  fill="#000000" d="M.91.05C.57.153.293.397.137.73L.05.917V6.35l.097.207c.113.243.376.51.61.62l.16.073 8.046.01c6.98.007 8.04.013 8.027.057-.01.023-1.047 1.46-2.3 3.19s-4.263 5.88-6.69 9.226l-6.157 8.49C.873 29.56.077 30.693.05 30.77c-.15.417.047.937.43 1.14l.137.073 3.833.01c2.607.004 3.887-.003 4.003-.026.26-.054.61-.237.804-.42.096-.09.596-.754 1.12-1.48.52-.724 1.603-2.234 2.406-3.35A89753.58 89753.58 0 0131.033 1.35c.5-.697.924-1.287.944-1.31C32.027-.02 1.113-.013.91.05zM28.357 8.57l-3.624 5.073.007 8.72.01 8.72.107.22c.13.264.34.467.603.59l.19.09h5.433l.2-.093c.26-.12.487-.347.607-.603l.093-.204.01-10.55c.004-5.803.004-12.01 0-13.796l-.01-3.244-3.626 5.077z"/>
</svg>